<svg id="visual" viewBox="0 0 900 450" width="900" height="450" xmlns="http://www.w3.org/2000/svg" xmlns:xlink="http://www.w3.org/1999/xlink" version="1.1"><path d="M524 0L477.8 10.7C431.7 21.3 339.3 42.7 334 64.2C328.7 85.7 410.3 107.3 440 128.8C469.7 150.3 447.3 171.7 435 193C422.7 214.3 420.3 235.7 389 257C357.7 278.3 297.3 299.7 267.3 321.2C237.3 342.7 237.7 364.3 270.2 385.8C302.7 407.3 367.3 428.7 399.7 439.3L432 450L0 450L0 439.3C0 428.7 0 407.3 0 385.8C0 364.3 0 342.7 0 321.2C0 299.7 0 278.3 0 257C0 235.7 0 214.3 0 193C0 171.7 0 150.3 0 128.8C0 107.3 0 85.7 0 64.2C0 42.7 0 21.3 0 10.7L0 0Z" fill="#676767" stroke-linecap="round" stroke-linejoin="miter"></path></svg>